<?xml version="1.0" encoding="UTF-8" standalone="no"?>
<!DOCTYPE svg PUBLIC "-//W3C//DTD SVG 1.1//EN" "http://www.w3.org/Graphics/SVG/1.1/DTD/svg11.dtd">
<svg xmlns:dc="http://purl.org/dc/elements/1.1/" version="1.1" xmlns:xl="http://www.w3.org/1999/xlink" xmlns="http://www.w3.org/2000/svg" viewBox="-963 -522 1296 324" width="1296" height="324">
  <defs>
    <clipPath id="artboard_clip_path">
      <path d="M -963 -522 L 333 -522 L 333 -198 L -963 -198 Z"/>
    </clipPath>
  </defs>
  <g id="New_logo" stroke="none" fill="none" stroke-dasharray="none" stroke-opacity="1" fill-opacity="1">
    <title>New logo</title>
    <g id="New_logo_Fg_black_shape" clip-path="url(#artboard_clip_path)">
      <title>Fg black shape</title>
      <g id="Group_33">
        <g id="Graphic_35"/>
        <g id="Graphic_34">
          <path d="M 129.94144 -397.2748 C 119.76221 -407.454 105.6997 -413.75 90.16667 -413.74994 C 59.10059 -413.75 33.91665 -388.56607 33.91673 -357.5 C 33.91669 -341.96696 40.212655 -327.90446 50.39189 -317.72522 L 60.335584 -327.6689 C 52.70116 -335.30334 47.979183 -345.85022 47.979213 -357.5 C 47.979154 -380.79956 66.86711 -399.6875 90.16667 -399.68745 C 101.81644 -399.6875 112.36332 -394.9655 119.99775 -387.3311 Z" fill="white"/>
        </g>
      </g>
      <g id="Graphic_37">
        <title>T</title>
        <path d="M 190.9 -304 L 176.05 -304 L 176.05 -397.15 L 142 -397.15 L 142 -410.2 L 224.95 -410.2 L 224.95 -397.15 L 190.9 -397.15 Z" fill="white"/>
      </g>
      <g id="Group_47">
        <title>LUNAR ASPE</title>
        <g id="Graphic_38">
          <path d="M -846.3667 -317.2 L -798.9667 -317.2 L -798.9667 -304 L -861.2167 -304 L -861.2167 -410.2 L -846.3667 -410.2 Z" fill="white"/>
        </g>
        <g id="Graphic_39">
          <path d="M -747.6667 -301.3 C -754.6667 -301.3 -760.7667 -302.475 -765.9667 -304.825 C -771.1667 -307.175 -775.4667 -310.29998 -778.8667 -314.2 C -782.2667 -318.10002 -784.7917 -322.57497 -786.4417 -327.625 C -788.0917 -332.67503 -788.9167 -337.89997 -788.9167 -343.3 L -788.9167 -410.2 L -774.0667 -410.2 L -774.0667 -344.2 C -774.0667 -340.6 -773.6167 -337.025 -772.7167 -333.475 C -771.8167 -329.925 -770.3417 -326.75 -768.2917 -323.95 C -766.2417 -321.15 -763.5417 -318.9 -760.1917 -317.2 C -756.8417 -315.5 -752.6667 -314.65 -747.6667 -314.65 C -742.7667 -314.65 -738.6167 -315.5 -735.2167 -317.2 C -731.8167 -318.9 -729.0917 -321.15 -727.0417 -323.95 C -724.9917 -326.75 -723.5167 -329.925 -722.6167 -333.475 C -721.7167 -337.025 -721.2667 -340.6 -721.2667 -344.2 L -721.2667 -410.2 L -706.4167 -410.2 L -706.4167 -343.3 C -706.4167 -337.89997 -707.2417 -332.67503 -708.8917 -327.625 C -710.5417 -322.57497 -713.0667 -318.10002 -716.4667 -314.2 C -719.8667 -310.29998 -724.1667 -307.175 -729.3667 -304.825 C -734.5667 -302.475 -740.6667 -301.3 -747.6667 -301.3 Z" fill="white"/>
        </g>
        <g id="Graphic_40">
          <path d="M -606.5167 -325.3 L -606.2167 -325.3 L -606.2167 -410.2 L -591.3667 -410.2 L -591.3667 -304 L -610.1167 -304 L -666.2167 -390.7 L -666.5167 -390.7 L -666.5167 -304 L -681.3667 -304 L -681.3667 -410.2 L -662.0167 -410.2 Z" fill="white"/>
        </g>
        <g id="Graphic_41">
          <path d="M -561.2167 -304 L -577.7167 -304 L -531.6667 -410.2 L -518.1667 -410.2 L -472.5667 -304 L -489.3667 -304 L -500.1667 -330.1 L -550.5667 -330.1 Z M -545.3167 -343.15 L -505.5667 -343.15 L -525.3667 -392.95 Z" fill="white"/>
        </g>
        <g id="Graphic_42">
          <path d="M -444.0667 -304 L -458.9167 -304 L -458.9167 -410.2 L -424.8667 -410.2 C -419.76667 -410.2 -414.9167 -409.675 -410.3167 -408.625 C -405.71667 -407.575 -401.6917 -405.9 -398.2417 -403.6 C -394.79167 -401.3 -392.0667 -398.275 -390.0667 -394.525 C -388.0667 -390.775 -387.0667 -386.20003 -387.0667 -380.8 C -387.0667 -372.99996 -389.46667 -366.70002 -394.2667 -361.9 C -399.0667 -357.09998 -405.26665 -354.05 -412.8667 -352.75 L -383.1667 -304 L -401.1667 -304 L -428.1667 -351.25 L -444.0667 -351.25 Z M -444.0667 -363.7 L -426.9667 -363.7 C -423.46667 -363.7 -420.2167 -364 -417.2167 -364.6 C -414.2167 -365.2 -411.5917 -366.175 -409.3417 -367.525 C -407.0917 -368.875 -405.3167 -370.625 -404.0167 -372.775 C -402.7167 -374.925 -402.0667 -377.6 -402.0667 -380.8 C -402.0667 -384 -402.7167 -386.675 -404.0167 -388.825 C -405.3167 -390.975 -407.0417 -392.7 -409.1917 -394 C -411.3417 -395.3 -413.8667 -396.225 -416.7667 -396.775 C -419.6667 -397.325 -422.7167 -397.6 -425.9167 -397.6 L -444.0667 -397.6 Z" fill="white"/>
        </g>
        <g id="Graphic_43">
          <path d="M -327.6667 -304 L -344.1667 -304 L -298.1167 -410.2 L -284.6167 -410.2 L -239.0167 -304 L -255.8167 -304 L -266.6167 -330.1 L -317.0167 -330.1 Z M -311.7667 -343.15 L -272.0167 -343.15 L -291.8167 -392.95 Z" fill="white"/>
        </g>
        <g id="Graphic_44">
          <path d="M -172.5667 -390.55 C -174.6667 -393.45 -177.51667 -395.825 -181.1167 -397.675 C -184.7167 -399.525 -188.76667 -400.45 -193.2667 -400.45 C -195.6667 -400.45 -198.09168 -400.125 -200.5417 -399.475 C -202.9917 -398.825 -205.21668 -397.775 -207.2167 -396.325 C -209.2167 -394.875 -210.84168 -393.075 -212.0917 -390.925 C -213.3417 -388.775 -213.9667 -386.2 -213.9667 -383.2 C -213.9667 -380.3 -213.3917 -377.875 -212.2417 -375.925 C -211.09169 -373.975 -209.5417 -372.325 -207.5917 -370.975 C -205.64168 -369.625 -203.3417 -368.475 -200.6917 -367.525 C -198.04168 -366.575 -195.2167 -365.6 -192.2167 -364.6 C -188.61667 -363.5 -184.9667 -362.25 -181.2667 -360.85 C -177.56667 -359.45 -174.2167 -357.6 -171.2167 -355.3 C -168.21668 -353 -165.7667 -350.125 -163.8667 -346.675 C -161.96668 -343.225 -161.0167 -338.85003 -161.0167 -333.55 C -161.0167 -328.04997 -162.04168 -323.27502 -164.0917 -319.225 C -166.1417 -315.17498 -168.86667 -311.825 -172.2667 -309.175 C -175.6667 -306.525 -179.59167 -304.55 -184.0417 -303.25 C -188.49171 -301.95 -193.06667 -301.3 -197.7667 -301.3 C -204.46672 -301.3 -210.94166 -302.6 -217.1917 -305.2 C -223.44172 -307.8 -228.61667 -311.64997 -232.7167 -316.75 L -221.1667 -326.5 C -218.66668 -322.8 -215.3167 -319.8 -211.1167 -317.5 C -206.91667 -315.2 -202.36672 -314.05 -197.4667 -314.05 C -194.96668 -314.05 -192.4667 -314.4 -189.9667 -315.1 C -187.46668 -315.8 -185.1917 -316.9 -183.1417 -318.4 C -181.09168 -319.9 -179.4167 -321.775 -178.1167 -324.025 C -176.81668 -326.275 -176.1667 -329 -176.1667 -332.2 C -176.1667 -335.4 -176.84168 -338.075 -178.1917 -340.225 C -179.5417 -342.375 -181.36668 -344.2 -183.6667 -345.7 C -185.9667 -347.2 -188.64168 -348.475 -191.6917 -349.525 C -194.7417 -350.575 -197.96667 -351.65 -201.3667 -352.75 C -204.7667 -353.75 -208.11667 -354.975 -211.4167 -356.425 C -214.7167 -357.875 -217.66668 -359.725 -220.2667 -361.975 C -222.8667 -364.225 -224.96668 -367 -226.5667 -370.3 C -228.1667 -373.6 -228.9667 -377.69998 -228.9667 -382.6 C -228.9667 -387.90003 -227.8917 -392.45 -225.7417 -396.25 C -223.59168 -400.05 -220.7917 -403.2 -217.3417 -405.7 C -213.89167 -408.2 -209.99171 -410.025 -205.6417 -411.175 C -201.29167 -412.325 -196.91671 -412.9 -192.5167 -412.9 C -186.31666 -412.9 -180.51672 -411.8 -175.1167 -409.6 C -169.71666 -407.4 -165.3667 -404.45 -162.0667 -400.75 Z" fill="white"/>
        </g>
        <g id="Graphic_45">
          <path d="M -140.01669 -410.2 L -107.61669 -410.2 C -101.91666 -410.2 -96.71671 -409.625 -92.01669 -408.475 C -87.31667 -407.325 -83.31671 -405.55 -80.01669 -403.15 C -76.716675 -400.75 -74.1667 -397.7 -72.36669 -394 C -70.56668 -390.3 -69.66669 -385.85003 -69.66669 -380.65 C -69.66669 -375.34997 -70.64168 -370.8 -72.59169 -367 C -74.5417 -363.2 -77.24167 -360.1 -80.69169 -357.7 C -84.14171 -355.3 -88.24167 -353.525 -92.99169 -352.375 C -97.74171 -351.225 -102.86666 -350.65 -108.36669 -350.65 L -125.16669 -350.65 L -125.16669 -304 L -140.01669 -304 Z M -125.16669 -363.25 L -109.41669 -363.25 C -105.81667 -363.25 -102.49171 -363.575 -99.44169 -364.225 C -96.39168 -364.875 -93.7667 -365.875 -91.56669 -367.225 C -89.36668 -368.575 -87.6667 -370.35 -86.46669 -372.55 C -85.26669 -374.75 -84.66669 -377.45 -84.66669 -380.65 C -84.66669 -383.85 -85.29168 -386.525 -86.54169 -388.675 C -87.7917 -390.825 -89.49168 -392.575 -91.64169 -393.925 C -93.7917 -395.275 -96.36668 -396.225 -99.36669 -396.775 C -102.3667 -397.325 -105.61667 -397.6 -109.11669 -397.6 L -125.16669 -397.6 Z" fill="white"/>
        </g>
        <g id="Graphic_46">
          <path d="M -35.91669 -317.2 L 19.58331 -317.2 L 19.58331 -304 L -50.76669 -304 L -50.76669 -410.2 L 17.333309 -410.2 L 17.333309 -397.15 L -35.91669 -397.15 L -35.91669 -365.35 L 14.183309 -365.35 L 14.183309 -352.6 L -35.91669 -352.6 Z" fill="white"/>
        </g>
      </g>
    </g>
  </g>
</svg>
